<svg xmlns="http://www.w3.org/2000/svg" width="500pt" height="500pt" viewBox="0 0 500 500"><g id="#000000ff"><path fill="#000000" opacity="1.00" d=" M 149.97 50.21 C 162.82 40.20 178.62 33.35 195.06 33.02 C 209.60 32.54 224.03 39.58 232.99 50.98 C 243.73 64.28 246.34 83.67 239.26 99.27 C 238.06 102.05 236.23 104.77 236.45 107.94 C 236.45 125.85 236.50 143.77 236.43 161.68 C 243.23 161.81 250.05 161.85 256.85 161.63 C 257.68 160.68 257.56 159.24 257.96 158.11 C 261.57 141.30 275.13 127.10 291.78 122.77 C 306.57 118.78 322.32 122.61 335.73 129.28 C 341.38 132.33 347.28 135.54 351.72 140.17 C 351.96 154.09 351.55 168.02 351.81 181.95 C 351.94 185.55 351.57 189.37 353.30 192.68 C 357.88 202.75 359.75 214.16 357.78 225.10 C 355.79 237.31 349.32 248.54 340.21 256.84 C 348.64 256.66 357.06 256.79 365.49 256.75 C 365.51 300.15 365.51 343.55 365.49 386.95 C 365.24 397.34 366.31 407.87 364.10 418.12 C 359.82 440.42 341.94 459.42 319.93 465.02 C 313.45 466.84 306.68 467.08 300.00 466.98 C 268.00 466.97 236.00 466.98 204.00 466.98 C 196.71 466.93 189.28 467.37 182.15 465.53 C 165.45 461.74 150.58 450.63 142.35 435.61 C 137.78 427.19 134.77 417.68 134.99 408.04 C 135.02 357.61 134.99 307.18 135.00 256.75 C 143.26 256.76 151.51 256.72 159.76 256.78 C 148.32 246.55 141.30 231.44 141.47 216.03 C 141.33 200.05 148.87 184.28 161.23 174.19 C 170.84 166.18 183.27 161.95 195.72 161.65 C 195.69 150.46 195.69 139.26 195.72 128.07 C 178.52 127.38 161.86 120.42 148.64 109.54 C 147.86 107.15 148.40 104.51 148.26 102.02 C 148.08 85.65 148.39 69.29 148.20 52.93 C 147.92 51.64 149.17 50.92 149.97 50.21 M 161.58 58.00 C 161.49 73.00 161.21 88.01 161.72 103.01 C 170.63 108.69 180.54 113.23 191.16 114.32 C 203.89 116.27 217.29 109.99 224.28 99.25 C 231.39 88.85 231.78 74.52 225.56 63.62 C 219.71 53.10 208.04 46.20 196.01 46.14 C 183.63 46.39 171.78 51.20 161.58 58.00 M 217.59 122.38 C 217.53 122.41 217.40 122.48 217.33 122.51 L 215.67 123.34 C 215.59 123.37 215.44 123.44 215.36 123.47 C 213.93 124.04 212.49 124.56 211.04 125.06 C 210.56 125.29 209.60 125.77 209.12 126.01 C 209.12 158.02 209.12 190.02 209.12 222.03 C 209.07 223.44 209.52 224.79 209.97 226.10 C 212.66 232.55 223.38 229.90 223.01 223.02 C 223.02 188.41 223.23 153.80 222.91 119.20 C 221.12 120.23 219.37 121.33 217.59 122.38 M 275.75 149.70 C 268.17 160.75 268.16 176.29 275.67 187.38 C 281.79 196.81 292.78 202.81 304.02 202.89 C 316.36 202.61 328.15 197.80 338.36 191.09 C 338.76 176.28 338.28 161.46 338.61 146.65 C 328.15 138.99 315.22 133.91 302.10 134.56 C 291.54 134.93 281.51 140.91 275.75 149.70 M 171.47 183.41 C 161.24 190.81 154.86 203.32 155.09 215.97 C 154.98 225.76 158.57 235.58 165.10 242.90 C 172.55 251.40 183.68 256.76 195.05 256.60 C 217.88 256.46 240.70 256.42 263.53 256.56 C 263.69 236.36 263.60 216.16 263.55 195.95 C 263.73 193.50 262.49 191.30 261.58 189.11 C 259.65 184.74 257.89 180.23 257.30 175.45 C 250.33 175.17 243.36 175.41 236.39 175.32 C 236.36 191.52 236.47 207.73 236.35 223.93 C 236.08 235.15 225.07 244.49 213.98 243.08 C 205.72 242.31 198.46 235.91 196.39 227.94 C 195.45 224.37 195.80 220.65 195.75 217.01 C 195.72 203.07 195.83 189.14 195.70 175.21 C 187.02 175.36 178.43 178.21 171.47 183.41 M 304.22 216.16 C 304.20 229.62 304.39 243.08 304.12 256.53 C 317.94 257.14 331.61 249.44 338.74 237.67 C 345.02 227.66 346.65 214.94 343.14 203.66 C 331.44 210.93 318.05 215.66 304.22 216.16 M 277.16 256.68 C 281.70 256.83 286.24 256.86 290.78 256.73 C 290.90 242.55 291.03 228.35 290.72 214.17 C 289.75 213.72 288.79 213.27 287.83 212.84 L 286.70 212.59 C 286.59 212.55 286.35 212.46 286.23 212.42 L 284.55 211.51 C 284.51 211.49 284.43 211.45 284.38 211.43 C 282.95 210.76 281.54 210.05 280.15 209.31 C 280.00 209.18 279.72 208.92 279.57 208.79 L 278.81 209.03 L 279.15 208.67 L 277.18 207.33 C 276.99 223.78 276.91 240.24 277.16 256.68 M 148.05 270.10 C 147.96 314.40 148.07 358.70 148.01 403.00 C 147.75 410.98 149.15 419.10 152.63 426.32 C 158.66 439.39 171.03 449.19 184.99 452.50 C 193.19 454.45 201.66 453.56 210.00 453.84 C 241.02 453.87 272.05 453.85 303.08 453.86 C 315.42 453.77 327.89 449.45 336.82 440.77 C 346.41 431.93 351.94 419.01 352.00 406.00 C 351.92 360.70 352.05 315.41 351.93 270.12 C 334.90 269.95 317.87 270.12 300.84 270.03 C 300.73 274.34 300.96 278.73 299.79 282.93 C 297.35 291.33 288.85 297.68 280.03 297.17 C 259.67 297.16 239.31 297.21 218.95 297.15 C 210.73 297.26 203.02 291.37 200.41 283.67 C 199.11 279.23 199.26 274.58 199.15 270.01 C 182.12 270.14 165.08 269.96 148.05 270.10 M 212.74 270.17 C 212.64 273.42 212.38 276.75 213.22 279.93 C 214.24 282.57 217.15 284.15 219.93 283.91 C 239.62 283.89 259.32 283.87 279.01 283.92 C 281.66 284.13 284.66 283.47 286.17 281.07 C 288.05 277.77 287.27 273.79 287.19 270.18 C 262.37 270.25 237.56 270.27 212.74 270.17 Z"></path><path fill="#000000" opacity="1.00" d=" M 196.07 73.96 C 202.64 73.93 209.22 73.94 215.80 73.99 C 215.87 78.32 215.99 82.66 215.78 86.99 C 209.19 87.00 202.61 87.04 196.04 86.96 C 195.97 82.63 195.95 78.29 196.07 73.96 Z"></path><path fill="#000000" opacity="1.00" d=" M 284.21 162.03 C 290.79 161.99 297.38 161.97 303.97 162.04 C 304.03 166.38 304.01 170.71 304.01 175.04 C 297.41 175.04 290.82 175.05 284.23 175.06 C 284.10 170.72 284.17 166.37 284.21 162.03 Z"></path><path fill="#000000" opacity="1.00" d=" M 216.22 413.02 C 220.61 412.98 225.00 412.99 229.39 413.00 C 229.38 417.34 229.37 421.68 229.40 426.03 C 225.01 426.04 220.61 426.05 216.21 426.01 C 216.15 421.68 216.14 417.35 216.22 413.02 Z"></path><path fill="#000000" opacity="1.00" d=" M 243.33 413.04 C 247.79 412.99 252.25 412.91 256.71 413.10 C 256.57 417.39 256.60 421.70 256.67 426.00 C 252.22 426.05 247.77 426.07 243.31 425.98 C 243.41 421.67 243.40 417.35 243.33 413.04 Z"></path><path fill="#000000" opacity="1.00" d=" M 270.61 413.00 C 275.01 412.99 279.41 412.97 283.80 413.03 C 283.73 417.35 283.74 421.68 283.80 426.00 C 279.40 426.06 275.00 426.04 270.60 426.03 C 270.62 421.68 270.61 417.34 270.61 413.00 Z"></path></g><g id="#ffc064ff"><path fill="#ffc064" opacity="1.00" d=" M 161.58 58.00 C 171.78 51.20 183.63 46.39 196.01 46.14 C 208.04 46.20 219.71 53.10 225.56 63.62 C 231.78 74.52 231.39 88.85 224.28 99.25 C 217.29 109.99 203.89 116.27 191.16 114.32 C 180.54 113.23 170.63 108.69 161.72 103.01 C 161.21 88.01 161.49 73.00 161.58 58.00 M 196.07 73.96 C 195.95 78.29 195.97 82.63 196.04 86.96 C 202.61 87.04 209.19 87.00 215.78 86.99 C 215.99 82.66 215.87 78.32 215.80 73.99 C 209.22 73.94 202.64 73.93 196.07 73.96 Z"></path><path fill="#ffc064" opacity="1.00" d=" M 209.12 126.01 C 209.60 125.77 210.56 125.29 211.04 125.06 C 210.59 126.65 210.11 128.26 210.06 129.93 C 210.00 161.99 210.20 194.05 209.97 226.10 C 209.52 224.79 209.07 223.44 209.12 222.03 C 209.12 190.02 209.12 158.02 209.12 126.01 Z"></path><path fill="#ffc064" opacity="1.00" d=" M 275.75 149.70 C 281.51 140.91 291.54 134.93 302.10 134.56 C 315.22 133.91 328.15 138.99 338.61 146.65 C 338.28 161.46 338.76 176.28 338.36 191.09 C 328.15 197.80 316.36 202.61 304.02 202.89 C 292.78 202.81 281.79 196.81 275.67 187.38 C 268.16 176.29 268.17 160.75 275.75 149.70 M 284.21 162.03 C 284.17 166.37 284.10 170.72 284.23 175.06 C 290.82 175.05 297.41 175.04 304.01 175.04 C 304.01 170.71 304.03 166.38 303.97 162.04 C 297.38 161.97 290.79 161.99 284.21 162.03 Z"></path></g><g id="#ef9b2bff"><path fill="#ef9b2b" opacity="1.00" d=" M 217.59 122.38 C 219.37 121.33 221.12 120.23 222.91 119.20 C 223.23 153.80 223.02 188.41 223.01 223.02 C 223.38 229.90 212.66 232.55 209.97 226.10 C 210.20 194.05 210.00 161.99 210.06 129.93 C 210.11 128.26 210.59 126.65 211.04 125.06 C 212.49 124.56 213.93 124.04 215.36 123.47 C 215.44 123.44 215.59 123.37 215.67 123.34 L 217.33 122.51 C 217.40 122.48 217.53 122.41 217.59 122.38 Z"></path><path fill="#ef9b2b" opacity="1.00" d=" M 277.15 216.99 C 277.39 214.34 277.12 211.22 278.81 209.03 L 279.57 208.79 C 279.72 208.92 280.00 209.18 280.15 209.31 C 281.54 210.05 282.95 210.76 284.38 211.43 C 284.43 211.45 284.51 211.49 284.55 211.51 L 286.23 212.42 L 286.45 212.54 L 286.70 212.59 L 287.83 212.84 C 289.32 213.78 290.90 214.97 290.50 216.99 C 290.60 230.09 290.57 243.20 290.49 256.30 C 286.10 256.46 281.70 256.42 277.31 256.19 C 276.98 243.13 277.26 230.06 277.15 216.99 Z"></path></g><g id="#acacacff"><path fill="#acacac" opacity="1.00" d=" M 217.33 122.51 C 217.40 122.48 217.53 122.41 217.59 122.38 C 217.53 122.41 217.40 122.48 217.33 122.51 Z"></path><path fill="#acacac" opacity="1.00" d=" M 215.36 123.47 C 215.44 123.44 215.59 123.37 215.67 123.34 C 215.59 123.37 215.44 123.44 215.36 123.47 Z"></path><path fill="#acacac" opacity="1.00" d=" M 171.47 183.41 C 178.43 178.21 187.02 175.36 195.70 175.21 C 195.83 189.14 195.72 203.07 195.75 217.01 C 195.80 220.65 195.45 224.37 196.39 227.94 C 198.46 235.91 205.72 242.31 213.98 243.08 C 225.07 244.49 236.08 235.15 236.35 223.93 C 236.47 207.73 236.36 191.52 236.39 175.32 C 243.36 175.41 250.33 175.17 257.30 175.45 C 257.89 180.23 259.65 184.74 261.58 189.11 C 262.49 191.30 263.73 193.50 263.55 195.95 C 263.60 216.16 263.69 236.36 263.53 256.56 C 240.70 256.42 217.88 256.46 195.05 256.60 C 183.68 256.76 172.55 251.40 165.10 242.90 C 158.57 235.58 154.98 225.76 155.09 215.97 C 154.86 203.32 161.24 190.81 171.47 183.41 Z"></path><path fill="#acacac" opacity="1.00" d=" M 304.22 216.16 C 318.05 215.66 331.44 210.93 343.14 203.66 C 346.65 214.94 345.02 227.66 338.74 237.67 C 331.61 249.44 317.94 257.14 304.12 256.53 C 304.39 243.08 304.20 229.62 304.22 216.16 Z"></path><path fill="#acacac" opacity="1.00" d=" M 279.57 208.79 C 279.72 208.92 280.00 209.18 280.15 209.31 C 280.00 209.18 279.72 208.92 279.57 208.79 Z"></path><path fill="#acacac" opacity="1.00" d=" M 284.38 211.43 C 284.43 211.45 284.51 211.49 284.55 211.51 C 284.51 211.49 284.43 211.45 284.38 211.43 Z"></path><path fill="#acacac" opacity="1.00" d=" M 286.23 212.42 C 286.35 212.46 286.59 212.55 286.70 212.59 L 286.45 212.54 L 286.23 212.42 Z"></path></g><g id="#ffffffff"><path fill="#ffffff" opacity="1.00" d=" M 277.16 256.68 C 276.91 240.24 276.99 223.78 277.18 207.33 L 279.15 208.67 L 278.81 209.03 C 277.12 211.22 277.39 214.34 277.15 216.99 C 277.26 230.06 276.98 243.13 277.31 256.19 C 281.70 256.42 286.10 256.46 290.49 256.30 C 290.57 243.20 290.60 230.09 290.50 216.99 C 290.90 214.97 289.32 213.78 287.83 212.84 C 288.79 213.27 289.75 213.72 290.72 214.17 C 291.03 228.35 290.90 242.55 290.78 256.73 C 286.24 256.86 281.70 256.83 277.16 256.68 Z"></path><path fill="#ffffff" opacity="1.00" d=" M 245.66 314.05 C 245.45 311.52 248.89 309.20 250.94 311.11 C 258.35 317.01 265.46 323.29 272.86 329.21 C 272.88 330.76 272.90 332.31 272.92 333.86 C 266.81 338.87 260.72 343.91 254.70 349.04 C 260.64 354.26 266.81 359.20 272.88 364.27 C 272.89 365.80 272.90 367.33 272.91 368.87 C 265.71 374.70 258.70 380.76 251.52 386.62 C 249.49 388.91 245.41 387.07 245.65 384.06 C 245.56 375.30 245.66 366.53 245.63 357.76 C 241.30 361.33 237.81 365.82 233.52 369.43 C 231.58 371.16 228.22 369.39 228.12 366.92 C 227.85 365.05 229.47 363.80 230.58 362.57 C 235.13 358.08 239.70 353.61 244.15 349.02 C 239.01 343.80 233.61 338.82 228.68 333.41 C 226.44 330.54 230.61 326.43 233.48 328.66 C 237.80 332.23 241.18 336.84 245.65 340.26 C 245.65 331.52 245.56 322.78 245.66 314.05 M 252.75 321.72 C 252.58 328.26 252.61 334.82 252.73 341.36 C 256.75 338.12 260.97 335.05 264.51 331.29 C 260.44 328.28 256.75 324.80 252.75 321.72 M 252.73 356.71 C 252.59 363.28 252.62 369.84 252.72 376.40 C 256.76 373.18 260.87 369.99 264.56 366.36 C 260.48 363.31 256.77 359.81 252.73 356.71 Z"></path></g><g id="#41c2fcff"><path fill="#41c2fc" opacity="1.00" d=" M 148.05 270.10 C 165.08 269.96 182.12 270.14 199.15 270.01 C 199.26 274.58 199.11 279.23 200.41 283.67 C 203.02 291.37 210.73 297.26 218.95 297.15 C 239.31 297.21 259.67 297.16 280.03 297.17 C 288.85 297.68 297.35 291.33 299.79 282.93 C 300.96 278.73 300.73 274.34 300.84 270.03 C 317.87 270.12 334.90 269.95 351.93 270.12 C 352.05 315.41 351.92 360.70 352.00 406.00 C 351.94 419.01 346.41 431.93 336.82 440.77 C 327.89 449.45 315.42 453.77 303.08 453.86 C 272.05 453.85 241.02 453.87 210.00 453.84 C 201.66 453.56 193.19 454.45 184.99 452.50 C 171.03 449.19 158.66 439.39 152.63 426.32 C 149.15 419.10 147.75 410.98 148.01 403.00 C 148.07 358.70 147.96 314.40 148.05 270.10 M 245.66 314.05 C 245.56 322.78 245.65 331.52 245.65 340.26 C 241.18 336.84 237.80 332.23 233.48 328.66 C 230.61 326.43 226.44 330.54 228.68 333.41 C 233.61 338.82 239.01 343.80 244.15 349.02 C 239.70 353.61 235.13 358.08 230.58 362.57 C 229.47 363.80 227.85 365.05 228.12 366.92 C 228.22 369.39 231.58 371.16 233.52 369.43 C 237.81 365.82 241.30 361.33 245.63 357.76 C 245.66 366.53 245.56 375.30 245.65 384.06 C 245.41 387.07 249.49 388.91 251.52 386.62 C 258.70 380.76 265.71 374.70 272.91 368.87 C 272.90 367.33 272.89 365.80 272.88 364.27 C 266.81 359.20 260.64 354.26 254.70 349.04 C 260.72 343.91 266.81 338.87 272.92 333.86 C 272.90 332.31 272.88 330.76 272.86 329.21 C 265.46 323.29 258.35 317.01 250.94 311.11 C 248.89 309.20 245.45 311.52 245.66 314.05 M 216.22 413.02 C 216.14 417.35 216.15 421.68 216.21 426.01 C 220.61 426.05 225.01 426.04 229.40 426.03 C 229.37 421.68 229.38 417.34 229.39 413.00 C 225.00 412.99 220.61 412.98 216.22 413.02 M 243.33 413.04 C 243.40 417.35 243.41 421.67 243.31 425.98 C 247.77 426.07 252.22 426.05 256.67 426.00 C 256.60 421.70 256.57 417.39 256.71 413.10 C 252.25 412.91 247.79 412.99 243.33 413.04 M 270.61 413.00 C 270.61 417.34 270.62 421.68 270.60 426.03 C 275.00 426.04 279.40 426.06 283.80 426.00 C 283.74 421.68 283.73 417.35 283.80 413.03 C 279.41 412.97 275.01 412.99 270.61 413.00 Z"></path><path fill="#41c2fc" opacity="1.00" d=" M 212.74 270.17 C 237.56 270.27 262.37 270.25 287.19 270.18 C 287.27 273.79 288.05 277.77 286.17 281.07 C 284.66 283.47 281.66 284.13 279.01 283.92 C 259.32 283.87 239.62 283.89 219.93 283.91 C 217.15 284.15 214.24 282.57 213.22 279.93 C 212.38 276.75 212.64 273.42 212.74 270.17 Z"></path><path fill="#41c2fc" opacity="1.00" d=" M 252.75 321.72 C 256.75 324.80 260.44 328.28 264.51 331.29 C 260.97 335.05 256.75 338.12 252.73 341.36 C 252.61 334.82 252.58 328.26 252.75 321.72 Z"></path><path fill="#41c2fc" opacity="1.00" d=" M 252.73 356.71 C 256.77 359.81 260.48 363.31 264.56 366.36 C 260.87 369.99 256.76 373.18 252.72 376.40 C 252.62 369.84 252.59 363.28 252.73 356.71 Z"></path></g></svg>