<svg xmlns="http://www.w3.org/2000/svg" width="500pt" height="500pt" viewBox="0 0 500 500"><g id="#000000ff"><path fill="#000000" opacity="1.00" d=" M 156.19 22.30 C 216.80 21.95 277.43 22.30 338.06 22.13 C 344.11 22.02 350.26 22.73 355.91 25.00 C 369.55 30.64 380.14 44.94 378.93 60.03 C 378.92 188.36 378.94 316.70 378.92 445.03 C 377.54 460.40 364.95 473.86 349.95 477.02 C 345.40 478.26 340.64 477.88 335.99 477.93 C 276.64 477.93 217.29 477.92 157.94 477.93 C 143.46 477.73 129.65 468.16 124.21 454.76 C 121.47 448.94 121.07 442.37 121.20 436.04 C 121.23 310.71 121.19 185.38 121.22 60.05 C 121.22 50.13 125.24 40.27 132.37 33.35 C 138.65 26.96 147.28 23.07 156.19 22.30 M 136.43 58.31 C 136.26 66.60 136.33 74.90 136.40 83.19 C 202.22 83.16 268.04 83.22 333.85 83.18 C 333.82 88.17 333.85 93.17 333.82 98.16 C 267.99 98.21 202.16 98.08 136.33 98.25 C 136.35 204.56 136.33 310.88 136.34 417.20 C 136.48 425.57 136.09 433.96 136.50 442.33 C 137.30 453.59 147.74 463.06 159.00 462.83 C 220.37 462.81 281.73 462.84 343.09 462.81 C 354.30 462.30 364.08 452.19 364.35 440.97 C 364.55 433.03 364.36 425.09 364.41 417.15 C 298.52 417.17 232.62 417.06 166.73 417.20 C 166.76 412.19 166.72 407.18 166.76 402.17 C 232.64 402.10 298.51 402.28 364.39 402.07 C 364.45 295.76 364.41 189.44 364.41 83.13 C 364.38 75.10 364.47 67.07 364.38 59.04 C 363.86 47.47 353.69 37.37 342.03 37.31 C 281.00 37.28 219.97 37.32 158.95 37.29 C 147.58 37.24 137.09 46.91 136.43 58.31 Z"></path><path fill="#000000" opacity="1.00" d=" M 166.74 52.66 C 171.77 52.59 176.80 52.58 181.83 52.71 C 181.79 57.74 181.83 62.77 181.79 67.80 C 176.77 67.82 171.76 67.80 166.74 67.81 C 166.74 62.76 166.75 57.71 166.74 52.66 Z"></path><path fill="#000000" opacity="1.00" d=" M 197.20 52.70 C 207.31 52.55 217.43 52.61 227.54 52.69 C 227.61 57.72 227.60 62.76 227.55 67.80 C 217.43 67.81 207.31 67.82 197.19 67.79 C 197.21 62.76 197.22 57.73 197.20 52.70 Z"></path><path fill="#000000" opacity="1.00" d=" M 151.65 113.48 C 164.25 113.44 176.85 113.45 189.45 113.48 C 189.44 118.47 189.42 123.47 189.47 128.47 C 181.89 128.65 174.30 128.40 166.72 128.54 C 166.49 136.11 166.70 143.69 166.60 151.26 C 161.62 151.31 156.64 151.31 151.66 151.24 C 151.59 138.66 151.62 126.07 151.65 113.48 Z"></path><path fill="#000000" opacity="1.00" d=" M 333.85 349.16 C 338.93 348.70 344.05 348.82 349.14 349.13 C 349.18 361.67 349.17 374.21 349.13 386.75 C 336.47 386.79 323.81 386.79 311.15 386.75 C 311.17 381.75 311.17 376.76 311.15 371.77 C 318.74 371.58 326.33 371.87 333.91 371.67 C 333.83 364.17 333.93 356.66 333.85 349.16 Z"></path><path fill="#000000" opacity="1.00" d=" M 235.22 432.43 C 245.32 432.40 255.42 432.40 265.53 432.43 C 265.49 437.43 265.49 442.42 265.52 447.42 C 255.42 447.54 245.32 447.54 235.22 447.42 C 235.28 442.42 235.27 437.42 235.22 432.43 Z"></path></g><g id="#feea98ff"><path fill="#feea98" opacity="1.00" d=" M 136.43 58.31 C 137.09 46.91 147.58 37.24 158.95 37.29 C 219.97 37.32 281.00 37.28 342.03 37.31 C 353.69 37.37 363.86 47.47 364.38 59.04 C 364.47 67.07 364.38 75.10 364.41 83.13 C 354.22 83.24 344.04 82.82 333.85 83.18 C 268.04 83.22 202.22 83.16 136.40 83.19 C 136.33 74.90 136.26 66.60 136.43 58.31 M 166.74 52.66 C 166.75 57.71 166.74 62.76 166.74 67.81 C 171.76 67.80 176.77 67.82 181.79 67.80 C 181.83 62.77 181.79 57.74 181.83 52.71 C 176.80 52.58 171.77 52.59 166.74 52.66 M 197.20 52.70 C 197.22 57.73 197.21 62.76 197.19 67.79 C 207.31 67.82 217.43 67.81 227.55 67.80 C 227.60 62.76 227.61 57.72 227.54 52.69 C 217.43 52.61 207.31 52.55 197.20 52.70 Z"></path><path fill="#feea98" opacity="1.00" d=" M 136.34 417.20 C 146.47 417.20 156.60 417.23 166.73 417.20 C 232.62 417.06 298.52 417.17 364.41 417.15 C 364.36 425.09 364.55 433.03 364.35 440.97 C 364.08 452.19 354.30 462.30 343.09 462.81 C 281.73 462.84 220.37 462.81 159.00 462.83 C 147.74 463.06 137.30 453.59 136.50 442.33 C 136.09 433.96 136.48 425.57 136.34 417.20 M 235.22 432.43 C 235.27 437.42 235.28 442.42 235.22 447.42 C 245.32 447.54 255.42 447.54 265.52 447.42 C 265.49 442.42 265.49 437.43 265.53 432.43 C 255.42 432.40 245.32 432.40 235.22 432.43 Z"></path></g><g id="#77b8eaff"><path fill="#77b8ea" opacity="1.00" d=" M 333.85 83.18 C 344.04 82.82 354.22 83.24 364.41 83.13 C 364.41 189.44 364.45 295.76 364.39 402.07 C 298.51 402.28 232.64 402.10 166.76 402.17 C 166.72 407.18 166.76 412.19 166.73 417.20 C 156.60 417.23 146.47 417.20 136.34 417.20 C 136.33 310.88 136.35 204.56 136.33 98.25 C 202.16 98.08 267.99 98.21 333.82 98.16 C 333.85 93.17 333.82 88.17 333.85 83.18 M 151.65 113.48 C 151.62 126.07 151.59 138.66 151.66 151.24 C 156.64 151.31 161.62 151.31 166.60 151.26 C 166.70 143.69 166.49 136.11 166.72 128.54 C 174.30 128.40 181.89 128.65 189.47 128.47 C 189.42 123.47 189.44 118.47 189.45 113.48 C 176.85 113.45 164.25 113.44 151.65 113.48 M 333.85 349.16 C 333.93 356.66 333.83 364.17 333.91 371.67 C 326.33 371.87 318.74 371.58 311.15 371.77 C 311.17 376.76 311.17 381.75 311.15 386.75 C 323.81 386.79 336.47 386.79 349.13 386.75 C 349.17 374.21 349.18 361.67 349.14 349.13 C 344.05 348.82 338.93 348.70 333.85 349.16 Z"></path></g></svg>