<svg xmlns="http://www.w3.org/2000/svg" width="500pt" height="500pt" viewBox="0 0 500 500"><g id="#000000ff"><path fill="#000000" opacity="1.00" d=" M 82.45 56.49 C 89.76 51.03 98.91 48.37 107.99 48.29 C 155.66 48.29 203.34 48.29 251.01 48.29 C 259.66 48.30 268.37 50.75 275.51 55.70 C 286.75 63.22 293.80 76.52 293.84 90.03 C 293.84 183.37 293.83 276.71 293.84 370.05 C 293.89 386.06 283.66 401.58 268.91 407.83 C 265.34 409.16 264.57 413.45 261.58 415.52 C 257.63 418.62 252.37 418.30 247.64 418.30 C 250.18 426.47 256.31 433.68 264.49 436.53 C 272.37 439.39 280.86 437.96 289.04 438.32 C 296.06 438.66 303.45 437.48 309.26 433.27 C 317.04 427.94 321.08 418.29 320.71 409.01 C 320.79 346.69 320.71 284.36 320.75 222.03 C 320.74 207.92 333.97 195.68 347.96 196.17 C 361.38 195.99 373.98 207.51 374.46 221.02 C 374.56 264.01 374.42 307.01 374.50 350.01 C 374.36 355.96 378.28 361.97 384.09 363.66 C 389.40 365.43 395.63 363.18 398.78 358.60 C 401.04 355.59 401.49 351.69 401.51 348.04 C 401.34 299.88 401.65 251.72 401.39 203.57 C 399.15 202.63 396.90 201.57 395.28 199.70 C 386.04 189.93 380.85 176.42 381.23 162.97 C 381.36 157.94 380.93 152.88 381.48 147.86 C 381.68 144.52 385.18 143.10 387.87 142.08 C 387.93 137.71 387.70 133.34 387.91 128.98 C 387.92 125.58 390.84 122.41 394.31 122.46 C 403.53 122.40 412.75 122.15 421.96 122.57 C 425.05 122.35 427.87 124.94 428.18 127.97 C 428.66 132.68 428.17 137.43 428.49 142.16 C 431.62 142.98 435.21 145.29 434.89 148.97 C 434.62 158.69 435.97 168.67 433.15 178.14 C 430.79 186.44 426.45 194.23 420.37 200.38 C 418.99 201.90 417.02 202.58 415.17 203.31 C 414.44 252.54 415.18 301.80 415.02 351.03 C 414.89 356.44 413.44 361.88 410.25 366.32 C 404.06 375.49 391.78 380.08 381.11 377.11 C 372.47 374.95 365.22 368.12 362.35 359.72 C 360.14 353.36 361.46 346.54 360.99 339.96 C 361.02 302.98 360.97 266.00 361.03 229.02 C 360.86 224.89 361.50 220.39 359.17 216.73 C 356.28 211.31 349.24 208.31 343.44 210.64 C 337.86 212.43 334.09 218.14 334.26 223.94 C 334.25 284.30 334.26 344.66 334.26 405.02 C 334.29 410.72 334.48 416.53 332.94 422.07 C 329.63 434.09 320.55 444.46 308.92 449.05 C 298.16 453.61 286.26 451.11 274.95 451.79 C 255.35 453.13 236.66 437.61 233.80 418.29 C 228.46 418.18 222.18 419.07 217.99 414.97 C 216.40 413.79 215.38 411.29 213.09 411.51 C 178.05 411.49 143.01 411.51 107.96 411.50 C 101.08 411.54 94.20 409.97 88.07 406.83 C 74.39 400.00 65.36 385.25 65.18 370.00 C 65.14 277.01 65.18 184.02 65.16 91.02 C 64.98 77.63 71.58 64.34 82.45 56.49 M 99.09 62.96 C 87.40 66.30 78.61 77.86 78.64 90.04 C 78.66 169.51 78.66 248.97 78.64 328.44 C 83.45 324.61 88.66 321.14 94.61 319.38 C 101.82 316.81 109.57 317.49 117.07 317.44 C 162.05 317.45 207.02 317.45 252.00 317.44 C 262.44 317.23 272.49 321.76 280.39 328.37 C 280.42 248.90 280.41 169.43 280.40 89.96 C 280.58 75.25 267.62 62.10 252.98 61.79 C 206.64 61.76 160.31 61.79 113.98 61.77 C 109.00 61.75 103.91 61.47 99.09 62.96 M 401.55 135.85 C 401.54 138.06 401.53 140.27 401.52 142.48 C 405.96 142.43 410.40 142.41 414.84 142.46 C 414.81 140.25 414.79 138.05 414.80 135.85 C 410.38 135.85 405.96 135.86 401.55 135.85 M 394.69 156.09 C 394.64 162.73 394.38 169.55 396.51 175.94 C 398.03 181.00 400.94 185.48 404.16 189.61 C 406.86 189.61 409.56 189.61 412.26 189.56 C 415.58 185.08 418.64 180.27 420.10 174.83 C 422.02 168.76 421.41 162.32 421.49 156.06 C 412.56 156.17 403.62 156.12 394.69 156.09 M 80.93 348.13 C 77.78 354.99 78.76 362.69 78.65 370.00 C 78.72 381.71 86.84 392.69 97.87 396.47 C 104.99 398.88 112.61 397.98 119.99 398.16 C 151.07 398.09 182.16 398.15 213.24 398.12 C 213.31 382.36 213.19 366.61 213.30 350.86 C 213.03 347.18 216.52 344.17 220.06 344.31 C 233.39 344.21 246.74 344.20 260.07 344.33 C 263.62 344.12 267.06 347.28 266.76 350.91 C 266.98 365.25 266.60 379.59 266.90 393.92 C 272.24 390.22 276.76 385.09 278.82 378.85 C 281.05 372.83 280.32 366.33 280.43 360.05 C 280.77 349.15 274.24 338.40 264.42 333.66 C 259.06 330.89 252.89 330.59 246.98 330.72 C 200.31 330.78 153.64 330.67 106.97 330.78 C 95.79 330.65 85.25 337.90 80.93 348.13 M 226.67 357.66 C 226.68 373.39 226.49 389.12 226.71 404.85 C 235.61 404.63 244.52 404.76 253.43 404.78 C 253.42 389.07 253.51 373.36 253.38 357.65 C 244.48 357.75 235.57 357.71 226.67 357.66 Z"></path><path fill="#000000" opacity="1.00" d=" M 123.18 89.26 C 124.44 88.90 125.73 88.73 127.05 88.76 C 160.03 88.83 193.01 88.75 226.00 88.80 C 230.03 88.35 233.61 92.02 233.33 96.00 C 233.37 111.31 233.36 126.63 233.33 141.95 C 233.71 145.94 229.96 149.48 226.03 149.21 C 193.00 149.25 159.98 149.20 126.95 149.23 C 123.31 149.61 119.07 146.98 119.21 143.02 C 119.01 127.34 119.20 111.65 119.15 95.97 C 118.88 93.15 120.55 90.30 123.18 89.26 M 132.44 102.12 C 132.44 113.36 132.43 124.60 132.44 135.84 C 161.56 135.79 190.68 135.82 219.79 135.83 C 219.78 124.59 219.79 113.36 219.79 102.13 C 190.67 102.23 161.55 102.27 132.44 102.12 Z"></path><path fill="#000000" opacity="1.00" d=" M 139.24 108.89 C 143.72 108.90 148.21 108.84 152.69 108.95 C 152.67 115.65 152.70 122.36 152.67 129.06 C 148.19 129.12 143.72 129.09 139.24 129.09 C 139.19 122.36 139.19 115.62 139.24 108.89 Z"></path><path fill="#000000" opacity="1.00" d=" M 159.34 108.90 C 163.80 108.89 168.25 108.86 172.71 108.93 C 172.71 115.64 172.72 122.34 172.70 129.05 C 168.24 129.13 163.78 129.11 159.32 129.06 C 159.44 122.34 159.26 115.62 159.34 108.90 Z"></path><path fill="#000000" opacity="1.00" d=" M 179.58 108.89 C 184.00 108.89 188.42 108.89 192.85 108.89 C 192.90 115.62 192.91 122.36 192.84 129.10 C 188.42 129.09 184.00 129.09 179.58 129.10 C 179.54 122.36 179.55 115.62 179.58 108.89 Z"></path><path fill="#000000" opacity="1.00" d=" M 152.67 181.92 C 153.28 178.56 156.52 175.86 159.99 176.18 C 177.99 176.31 196.00 176.06 213.99 176.30 C 218.85 176.51 221.50 182.79 218.65 186.58 C 212.75 194.43 206.22 201.82 200.39 209.73 C 204.60 209.81 208.82 209.57 213.02 209.77 C 216.39 209.75 219.81 212.52 219.76 216.02 C 220.00 218.13 218.88 220.00 217.74 221.66 C 202.40 243.39 187.24 265.25 171.95 287.00 C 170.17 289.86 166.33 291.43 163.22 289.77 C 160.99 288.72 159.45 286.39 159.42 283.92 C 159.14 270.36 159.50 256.79 159.30 243.23 C 154.52 243.22 149.73 243.49 144.96 243.18 C 141.25 242.88 138.38 238.70 139.42 235.13 C 143.80 217.38 148.29 199.67 152.67 181.92 M 154.64 229.91 C 159.06 230.00 163.54 229.44 167.92 230.30 C 170.88 230.91 172.95 233.97 172.70 236.94 C 172.76 245.39 172.64 253.85 172.76 262.30 C 182.07 249.40 191.15 236.33 200.15 223.22 C 195.08 223.02 190.00 223.46 184.95 223.01 C 180.44 222.30 177.86 216.41 180.77 212.75 C 186.72 204.91 193.14 197.41 199.15 189.61 C 187.63 189.59 176.10 189.57 164.58 189.62 C 161.28 203.05 157.70 216.42 154.64 229.91 Z"></path><path fill="#000000" opacity="1.00" d=" M 98.25 344.38 C 111.82 344.11 125.40 344.26 138.98 344.32 C 142.32 344.12 145.59 346.82 145.72 350.23 C 146.01 358.14 145.73 366.07 145.86 373.99 C 145.75 376.95 146.25 380.58 143.71 382.74 C 141.69 384.80 138.58 384.59 135.94 384.67 C 123.61 384.54 111.27 384.78 98.94 384.55 C 95.49 384.64 92.13 381.59 92.21 378.08 C 92.12 369.02 92.17 359.96 92.20 350.90 C 92.09 347.60 94.93 344.50 98.25 344.38 M 105.80 357.83 C 105.79 362.25 105.76 366.67 105.76 371.10 C 114.63 371.07 123.50 371.07 132.37 371.09 C 132.32 366.67 132.25 362.25 132.24 357.83 C 123.43 357.84 114.62 357.85 105.80 357.83 Z"></path><path fill="#000000" opacity="1.00" d=" M 174.50 344.88 C 179.64 343.57 185.27 344.38 189.81 347.12 C 197.47 351.55 201.62 361.48 198.88 369.97 C 196.98 376.57 191.52 381.98 184.90 383.81 C 178.10 385.93 170.40 383.60 165.40 378.68 C 160.25 373.72 158.08 365.82 160.17 358.96 C 161.97 352.14 167.76 346.72 174.50 344.88 M 176.41 358.39 C 172.17 360.38 171.44 367.03 175.37 369.73 C 179.17 373.11 186.07 370.13 186.25 365.06 C 187.01 360.06 180.81 355.66 176.41 358.39 Z"></path></g><g id="#4798ceff"><path fill="#4798ce" opacity="1.00" d=" M 99.09 62.96 C 103.91 61.47 109.00 61.75 113.98 61.77 C 160.31 61.79 206.64 61.76 252.98 61.79 C 267.62 62.10 280.58 75.25 280.40 89.96 C 280.41 169.43 280.42 248.90 280.39 328.37 C 272.49 321.76 262.44 317.23 252.00 317.44 C 207.02 317.45 162.05 317.45 117.07 317.44 C 109.57 317.49 101.82 316.81 94.61 319.38 C 88.66 321.14 83.45 324.61 78.64 328.44 C 78.66 248.97 78.66 169.51 78.64 90.04 C 78.61 77.86 87.40 66.30 99.09 62.96 M 123.18 89.26 C 120.55 90.30 118.88 93.15 119.15 95.97 C 119.20 111.65 119.01 127.34 119.21 143.02 C 119.07 146.98 123.31 149.61 126.95 149.23 C 159.98 149.20 193.00 149.25 226.03 149.21 C 229.96 149.48 233.71 145.94 233.33 141.95 C 233.36 126.63 233.37 111.31 233.33 96.00 C 233.61 92.02 230.03 88.35 226.00 88.80 C 193.01 88.75 160.03 88.83 127.05 88.76 C 125.73 88.73 124.44 88.90 123.18 89.26 M 152.67 181.92 C 148.29 199.67 143.80 217.38 139.42 235.13 C 138.38 238.70 141.25 242.88 144.96 243.18 C 149.73 243.49 154.52 243.22 159.30 243.23 C 159.50 256.79 159.14 270.36 159.42 283.92 C 159.45 286.39 160.99 288.72 163.22 289.77 C 166.33 291.43 170.17 289.86 171.95 287.00 C 187.24 265.25 202.40 243.39 217.74 221.66 C 218.88 220.00 220.00 218.13 219.76 216.02 C 219.81 212.52 216.39 209.75 213.02 209.77 C 208.82 209.57 204.60 209.81 200.39 209.73 C 206.22 201.82 212.75 194.43 218.65 186.58 C 221.50 182.79 218.85 176.51 213.99 176.30 C 196.00 176.06 177.99 176.31 159.99 176.18 C 156.52 175.86 153.28 178.56 152.67 181.92 Z"></path></g><g id="#c2ddd5ff"><path fill="#c2ddd5" opacity="1.00" d=" M 132.44 102.12 C 161.55 102.27 190.67 102.23 219.79 102.13 C 219.79 113.36 219.78 124.59 219.79 135.83 C 190.68 135.82 161.56 135.79 132.44 135.84 C 132.43 124.60 132.44 113.36 132.44 102.12 M 139.24 108.89 C 139.19 115.62 139.19 122.36 139.24 129.09 C 143.72 129.09 148.19 129.12 152.67 129.06 C 152.70 122.36 152.67 115.65 152.69 108.95 C 148.21 108.84 143.72 108.90 139.24 108.89 M 159.34 108.90 C 159.26 115.62 159.44 122.34 159.32 129.06 C 163.78 129.11 168.24 129.13 172.70 129.05 C 172.72 122.34 172.71 115.64 172.71 108.93 C 168.25 108.86 163.80 108.89 159.34 108.90 M 179.58 108.89 C 179.55 115.62 179.54 122.36 179.58 129.10 C 184.00 129.09 188.42 129.09 192.84 129.10 C 192.91 122.36 192.90 115.62 192.85 108.89 C 188.42 108.89 184.00 108.89 179.58 108.89 Z"></path><path fill="#c2ddd5" opacity="1.00" d=" M 401.55 135.85 C 405.96 135.86 410.38 135.85 414.80 135.85 C 414.79 138.05 414.81 140.25 414.84 142.46 C 410.40 142.41 405.96 142.43 401.52 142.48 C 401.53 140.27 401.54 138.06 401.55 135.85 Z"></path><path fill="#c2ddd5" opacity="1.00" d=" M 394.69 156.09 C 403.62 156.12 412.56 156.17 421.49 156.06 C 421.41 162.32 422.02 168.76 420.10 174.83 C 418.64 180.27 415.58 185.08 412.26 189.56 C 409.56 189.61 406.86 189.61 404.16 189.61 C 400.94 185.48 398.03 181.00 396.51 175.94 C 394.38 169.55 394.64 162.73 394.69 156.09 Z"></path><path fill="#c2ddd5" opacity="1.00" d=" M 226.67 357.66 C 235.57 357.71 244.48 357.75 253.38 357.65 C 253.51 373.36 253.42 389.07 253.43 404.78 C 244.52 404.76 235.61 404.63 226.71 404.85 C 226.49 389.12 226.68 373.39 226.67 357.66 Z"></path></g><g id="#fab440ff"><path fill="#fab440" opacity="1.00" d=" M 154.64 229.91 C 157.70 216.42 161.28 203.05 164.58 189.62 C 176.10 189.57 187.63 189.59 199.15 189.61 C 193.14 197.41 186.72 204.91 180.77 212.75 C 177.86 216.41 180.44 222.30 184.95 223.01 C 190.00 223.46 195.08 223.02 200.15 223.22 C 191.15 236.33 182.07 249.40 172.76 262.30 C 172.64 253.85 172.76 245.39 172.70 236.94 C 172.95 233.97 170.88 230.91 167.92 230.30 C 163.54 229.44 159.06 230.00 154.64 229.91 Z"></path><path fill="#fab440" opacity="1.00" d=" M 176.41 358.39 C 180.81 355.66 187.01 360.06 186.25 365.06 C 186.07 370.13 179.17 373.11 175.37 369.73 C 171.44 367.03 172.17 360.38 176.41 358.39 Z"></path></g><g id="#3773a2ff"><path fill="#3773a2" opacity="1.00" d=" M 80.93 348.13 C 85.25 337.90 95.79 330.65 106.97 330.78 C 153.64 330.67 200.31 330.78 246.98 330.72 C 252.89 330.59 259.06 330.89 264.42 333.66 C 274.24 338.40 280.77 349.15 280.43 360.05 C 280.32 366.33 281.05 372.83 278.82 378.85 C 276.76 385.09 272.24 390.22 266.90 393.92 C 266.60 379.59 266.98 365.25 266.76 350.91 C 267.06 347.28 263.62 344.12 260.07 344.33 C 246.74 344.20 233.39 344.21 220.06 344.31 C 216.52 344.17 213.03 347.18 213.30 350.86 C 213.19 366.61 213.31 382.36 213.24 398.12 C 182.16 398.15 151.07 398.09 119.99 398.16 C 112.61 397.98 104.99 398.88 97.87 396.47 C 86.84 392.69 78.72 381.71 78.65 370.00 C 78.76 362.69 77.78 354.99 80.93 348.13 M 98.25 344.38 C 94.93 344.50 92.09 347.60 92.20 350.90 C 92.17 359.96 92.12 369.02 92.21 378.08 C 92.13 381.59 95.49 384.64 98.94 384.55 C 111.27 384.78 123.61 384.54 135.94 384.67 C 138.58 384.59 141.69 384.80 143.71 382.74 C 146.25 380.58 145.75 376.95 145.86 373.99 C 145.73 366.07 146.01 358.14 145.72 350.23 C 145.59 346.82 142.32 344.12 138.98 344.32 C 125.40 344.26 111.82 344.11 98.25 344.38 M 174.50 344.88 C 167.76 346.72 161.97 352.14 160.17 358.96 C 158.08 365.82 160.25 373.72 165.40 378.68 C 170.40 383.60 178.10 385.93 184.90 383.81 C 191.52 381.98 196.98 376.57 198.88 369.97 C 201.62 361.48 197.47 351.55 189.81 347.12 C 185.27 344.38 179.64 343.57 174.50 344.88 Z"></path><path fill="#3773a2" opacity="1.00" d=" M 105.80 357.83 C 114.62 357.85 123.43 357.84 132.24 357.83 C 132.25 362.25 132.32 366.67 132.37 371.09 C 123.50 371.07 114.63 371.07 105.76 371.10 C 105.76 366.67 105.79 362.25 105.80 357.83 Z"></path></g></svg>