<svg xmlns="http://www.w3.org/2000/svg" width="500pt" height="500pt" viewBox="0 0 500 500"><g id="#000000ff"><path fill="#000000" opacity="1.00" d=" M 160.56 57.90 C 164.19 48.56 173.86 41.63 184.00 42.08 C 215.02 42.11 246.04 42.08 277.06 42.10 C 283.97 42.08 290.69 45.59 294.97 50.96 C 297.88 54.51 299.13 59.02 300.80 63.21 C 304.86 73.49 308.46 83.96 312.81 94.13 C 330.77 96.40 347.54 106.09 359.08 119.97 C 368.08 130.69 373.81 144.04 375.66 157.89 C 376.44 164.58 376.17 171.33 376.21 178.05 C 376.23 192.74 376.18 207.43 376.24 222.13 C 382.78 222.29 389.35 221.75 395.87 222.43 C 405.19 223.93 413.18 231.22 415.81 240.26 C 419.22 251.46 412.15 264.36 401.17 268.09 C 393.53 270.66 385.39 269.10 377.51 269.45 C 377.49 288.29 377.51 307.13 377.50 325.97 C 377.38 333.00 377.72 340.12 376.22 347.05 C 372.50 366.54 360.54 384.24 343.95 395.11 C 334.91 401.16 324.51 405.02 313.81 406.82 C 309.57 417.94 305.24 429.02 301.12 440.19 C 297.98 449.88 288.75 458.94 277.97 457.95 C 247.29 457.90 216.62 457.94 185.94 457.93 C 182.36 457.81 178.55 458.47 175.20 456.86 C 168.88 454.31 163.70 449.09 161.22 442.75 C 156.41 430.80 152.18 418.62 147.25 406.71 C 129.46 403.99 112.80 394.66 101.24 380.86 C 91.19 368.88 84.61 353.65 84.00 337.95 C 83.99 279.64 84.00 221.33 84.00 163.02 C 84.39 149.21 89.60 135.76 97.52 124.55 C 109.08 108.28 127.39 96.83 147.19 94.05 C 151.97 82.12 155.93 69.88 160.56 57.90 M 181.20 55.34 C 177.25 56.44 174.02 59.57 172.54 63.38 C 170.42 68.83 168.19 74.25 166.28 79.79 L 166.04 79.79 C 164.49 84.15 162.72 88.43 161.06 92.74 C 207.01 92.67 252.96 92.91 298.91 92.62 C 294.77 82.51 290.89 72.30 286.90 62.14 C 285.57 58.69 282.40 56.02 278.78 55.31 C 274.92 54.90 271.04 55.20 267.17 55.14 C 240.77 55.08 214.37 55.15 187.96 55.11 C 185.71 55.13 183.43 55.00 181.20 55.34 M 117.20 121.15 C 104.24 132.60 95.98 149.60 96.18 167.00 C 96.19 222.66 96.12 278.33 96.22 333.99 C 96.15 359.35 114.11 383.14 138.03 391.04 C 147.93 394.69 158.61 394.32 168.98 394.27 C 213.67 394.24 258.36 394.32 303.05 394.23 C 319.50 394.23 335.61 386.84 346.76 374.84 C 357.11 363.86 362.93 348.97 363.25 333.92 C 363.11 281.29 363.22 228.66 363.17 176.03 C 363.53 165.17 362.93 153.99 358.46 143.92 C 351.67 127.64 337.72 114.49 320.96 108.93 C 313.94 106.42 306.44 105.63 299.03 105.72 C 253.25 105.73 207.48 105.75 161.70 105.71 C 145.59 104.91 129.25 110.36 117.20 121.15 M 376.22 235.22 C 376.21 237.35 376.22 239.48 376.22 241.61 C 376.21 246.56 376.25 251.52 376.17 256.47 C 382.10 256.36 388.08 256.88 393.98 256.16 C 399.21 255.17 402.40 250.03 403.10 245.06 C 402.07 240.65 399.09 236.28 394.40 235.39 C 388.35 234.92 382.27 235.31 376.22 235.22 M 161.08 407.25 C 164.84 417.06 168.80 426.79 172.51 436.62 C 173.45 439.33 175.12 441.86 177.66 443.31 C 181.80 445.87 186.87 444.59 191.45 444.85 C 219.63 444.91 247.82 444.87 276.01 444.87 C 280.89 445.13 285.28 441.49 287.12 437.16 C 289.38 431.79 291.33 426.29 293.52 420.89 C 295.34 416.38 297.03 411.83 298.91 407.36 C 252.97 407.12 207.03 407.33 161.08 407.25 Z"></path><path fill="#000000" opacity="1.00" d=" M 129.26 136.24 C 137.78 127.94 149.91 123.84 161.71 124.56 C 205.14 124.70 248.57 124.58 292.00 124.62 C 300.04 124.70 308.39 123.90 316.04 126.97 C 332.96 132.78 344.76 150.14 344.38 167.96 C 344.31 224.33 344.53 280.71 344.24 337.08 C 342.54 352.28 332.16 366.28 317.83 371.82 C 308.72 375.64 298.66 374.86 289.03 374.89 C 246.01 374.89 202.98 374.89 159.96 374.89 C 152.24 374.93 144.42 373.27 137.70 369.36 C 124.76 362.22 116.14 347.86 116.26 333.04 C 116.17 278.03 116.27 223.02 116.21 168.01 C 115.84 156.21 120.64 144.32 129.26 136.24 M 128.62 165.98 C 128.56 221.64 128.62 277.31 128.59 332.98 C 128.34 349.00 143.01 363.16 159.02 362.38 C 204.02 362.37 249.02 362.37 294.03 362.37 C 298.72 362.32 303.48 362.67 308.12 361.69 C 314.56 360.33 320.36 356.59 324.54 351.55 C 329.99 345.35 331.29 336.93 332.10 329.02 C 332.12 317.60 332.10 306.17 332.10 294.75 C 332.08 252.16 332.13 209.57 332.08 166.98 C 332.12 151.62 318.51 137.45 303.00 137.69 C 267.04 137.55 231.08 137.65 195.12 137.63 C 182.10 137.70 169.06 137.47 156.04 137.74 C 141.45 138.39 129.05 151.48 128.62 165.98 Z"></path><path fill="#000000" opacity="1.00" d=" M 156.68 175.68 C 160.72 168.11 171.37 166.83 178.46 170.55 C 184.41 173.82 185.94 182.38 182.07 187.80 C 177.61 194.51 169.82 197.97 165.03 204.42 C 170.66 204.71 176.32 204.21 181.94 204.68 C 184.23 204.70 185.81 207.60 184.55 209.52 C 183.73 211.19 181.64 211.28 180.02 211.28 C 173.65 211.27 167.28 211.28 160.91 211.27 C 158.98 211.30 156.54 210.96 155.72 208.91 C 154.70 206.72 156.03 204.26 157.33 202.48 C 161.55 197.65 166.34 193.34 171.39 189.40 C 174.51 186.79 177.71 182.40 175.83 178.21 C 174.27 174.37 168.88 173.06 165.69 175.65 C 162.30 177.68 163.30 183.39 159.00 184.32 C 154.53 183.96 155.00 178.55 156.68 175.68 Z"></path><path fill="#000000" opacity="1.00" d=" M 195.35 179.47 C 200.48 177.31 204.01 172.92 207.08 168.46 C 209.34 168.37 211.81 169.64 211.64 172.22 C 211.89 183.15 211.66 194.09 211.75 205.02 C 211.58 207.08 211.93 209.61 210.19 211.11 C 207.98 213.22 203.65 211.15 204.13 208.04 C 204.01 199.02 204.14 190.00 204.10 180.99 C 201.37 182.95 198.64 184.92 195.67 186.51 C 192.53 187.57 190.70 184.82 190.86 182.00 C 192.35 181.14 193.84 180.28 195.35 179.47 Z"></path><path fill="#000000" opacity="1.00" d=" M 244.47 180.07 C 244.76 172.86 252.27 168.18 258.99 168.60 C 264.43 168.34 270.42 170.97 272.39 176.36 C 274.10 180.88 272.87 186.11 269.70 189.68 C 264.98 195.12 258.38 198.61 254.03 204.43 C 259.67 204.70 265.33 204.21 270.95 204.68 C 273.34 204.73 274.74 207.75 273.44 209.67 C 272.32 211.50 269.89 211.24 268.04 211.29 C 261.69 211.22 255.33 211.34 248.98 211.24 C 246.60 211.41 244.06 209.62 244.34 207.03 C 245.10 202.10 249.63 199.22 252.79 195.82 C 257.00 191.30 263.71 188.57 265.29 182.07 C 266.58 176.70 259.83 172.25 255.32 175.20 C 252.18 176.73 252.07 180.59 250.20 183.13 C 248.05 185.67 243.64 183.27 244.47 180.07 Z"></path><path fill="#000000" opacity="1.00" d=" M 282.92 173.89 C 283.23 171.74 284.57 169.48 287.05 169.60 C 293.01 169.48 299.02 169.29 304.97 169.71 C 308.55 169.83 308.53 175.88 304.98 176.07 C 299.91 176.54 294.80 176.14 289.71 176.26 C 289.06 179.29 288.55 182.34 288.09 185.40 C 291.91 183.58 296.45 182.33 300.48 184.30 C 307.95 186.95 310.95 196.57 307.50 203.42 C 303.35 213.11 288.63 214.83 281.70 207.30 C 280.11 205.26 278.41 202.27 279.71 199.72 C 281.00 197.46 284.58 197.82 285.55 200.17 C 287.20 203.82 290.69 207.33 295.08 206.32 C 303.32 204.40 302.94 189.24 294.03 188.81 C 289.99 188.12 287.53 191.98 284.10 193.25 C 281.96 193.31 279.48 191.21 280.30 188.91 C 281.23 183.91 282.05 178.90 282.92 173.89 Z"></path><path fill="#000000" opacity="1.00" d=" M 229.42 180.42 C 231.60 179.68 234.60 179.81 235.68 182.21 C 237.82 185.71 232.49 190.40 229.35 187.67 C 226.58 186.16 226.74 181.93 229.42 180.42 Z"></path><path fill="#000000" opacity="1.00" d=" M 229.29 204.08 C 232.10 201.89 236.48 204.66 236.18 208.09 C 235.80 211.34 231.51 213.19 228.99 211.00 C 226.57 209.43 226.87 205.50 229.29 204.08 Z"></path><path fill="#000000" opacity="1.00" d=" M 196.96 268.86 C 202.44 263.01 209.92 258.94 217.93 258.04 C 224.04 257.00 230.10 258.68 236.00 260.03 C 240.05 259.52 243.92 258.02 248.02 257.81 C 259.26 257.26 270.71 262.68 277.11 272.00 C 281.99 278.73 283.85 287.30 283.10 295.50 C 282.42 302.99 279.55 310.16 275.40 316.39 C 267.48 328.17 255.83 337.01 243.32 343.46 C 239.39 345.55 234.56 346.35 230.42 344.39 C 221.02 340.09 212.42 334.08 204.97 326.92 C 197.22 319.33 190.96 309.75 188.98 298.94 C 186.74 288.40 189.80 276.91 196.96 268.86 M 203.83 281.68 C 199.67 289.47 201.27 299.09 205.43 306.53 C 212.26 318.41 223.96 326.44 235.93 332.54 C 246.53 327.25 256.68 320.37 263.75 310.71 C 268.36 304.18 271.23 296.00 269.93 287.96 C 268.77 279.81 262.08 272.82 253.99 271.29 C 248.50 269.77 242.80 271.37 237.87 273.87 C 235.33 275.18 232.84 273.33 230.52 272.44 C 221.05 268.16 208.53 272.33 203.83 281.68 Z"></path></g><g id="#febf64ff"><path fill="#febf64" opacity="1.00" d=" M 181.20 55.34 C 183.43 55.00 185.71 55.13 187.96 55.11 C 214.37 55.15 240.77 55.08 267.17 55.14 C 268.28 60.02 269.49 65.37 267.08 70.09 C 264.37 76.23 257.69 79.96 251.07 79.75 C 222.81 79.78 194.55 79.71 166.28 79.79 C 168.19 74.25 170.42 68.83 172.54 63.38 C 174.02 59.57 177.25 56.44 181.20 55.34 Z"></path><path fill="#febf64" opacity="1.00" d=" M 376.22 241.61 C 385.25 241.59 394.93 240.24 403.10 245.06 C 402.40 250.03 399.21 255.17 393.98 256.16 C 388.08 256.88 382.10 256.36 376.17 256.47 C 376.25 251.52 376.21 246.56 376.22 241.61 Z"></path><path fill="#febf64" opacity="1.00" d=" M 193.36 433.38 C 196.44 426.14 204.00 421.02 211.91 421.14 C 239.11 420.92 266.32 421.40 293.52 420.89 C 291.33 426.29 289.38 431.79 287.12 437.16 C 285.28 441.49 280.89 445.13 276.01 444.87 C 247.82 444.87 219.63 444.91 191.45 444.85 C 191.60 440.97 191.75 436.98 193.36 433.38 Z"></path></g><g id="#ee9a2bff"><path fill="#ee9a2b" opacity="1.00" d=" M 267.17 55.14 C 271.04 55.20 274.92 54.90 278.78 55.31 C 282.40 56.02 285.57 58.69 286.90 62.14 C 290.89 72.30 294.77 82.51 298.91 92.62 C 252.96 92.91 207.01 92.67 161.06 92.74 C 162.72 88.43 164.49 84.15 166.04 79.79 L 166.28 79.79 C 194.55 79.71 222.81 79.78 251.07 79.75 C 257.69 79.96 264.37 76.23 267.08 70.09 C 269.49 65.37 268.28 60.02 267.17 55.14 Z"></path><path fill="#ee9a2b" opacity="1.00" d=" M 376.22 235.22 C 382.27 235.31 388.35 234.92 394.40 235.39 C 399.09 236.28 402.07 240.65 403.10 245.06 C 394.93 240.24 385.25 241.59 376.22 241.61 C 376.22 239.48 376.21 237.35 376.22 235.22 Z"></path><path fill="#ee9a2b" opacity="1.00" d=" M 161.08 407.25 C 207.03 407.33 252.97 407.12 298.91 407.36 C 297.03 411.83 295.34 416.38 293.52 420.89 C 266.32 421.40 239.11 420.92 211.91 421.14 C 204.00 421.02 196.44 426.14 193.36 433.38 C 191.75 436.98 191.60 440.97 191.45 444.85 C 186.87 444.59 181.80 445.87 177.66 443.31 C 175.12 441.86 173.45 439.33 172.51 436.62 C 168.80 426.79 164.84 417.06 161.08 407.25 Z"></path></g><g id="#1aa8e7ff"><path fill="#1aa8e7" opacity="1.00" d=" M 117.20 121.15 C 129.25 110.36 145.59 104.91 161.70 105.71 C 161.75 112.00 161.72 118.28 161.71 124.56 C 149.91 123.84 137.78 127.94 129.26 136.24 C 120.64 144.32 115.84 156.21 116.21 168.01 C 116.27 223.02 116.17 278.03 116.26 333.04 C 116.14 347.86 124.76 362.22 137.70 369.36 C 144.42 373.27 152.24 374.93 159.96 374.89 C 202.98 374.89 246.01 374.89 289.03 374.89 C 298.66 374.86 308.72 375.64 317.83 371.82 C 332.16 366.28 342.54 352.28 344.24 337.08 C 344.44 336.08 344.65 335.09 344.88 334.10 C 350.99 333.65 357.13 333.87 363.25 333.92 C 362.93 348.97 357.11 363.86 346.76 374.84 C 335.61 386.84 319.50 394.23 303.05 394.23 C 258.36 394.32 213.67 394.24 168.98 394.27 C 158.61 394.32 147.93 394.69 138.03 391.04 C 114.11 383.14 96.15 359.35 96.22 333.99 C 96.12 278.33 96.19 222.66 96.18 167.00 C 95.98 149.60 104.24 132.60 117.20 121.15 Z"></path></g><g id="#42c2fbff"><path fill="#42c2fb" opacity="1.00" d=" M 161.70 105.71 C 207.48 105.75 253.25 105.73 299.03 105.72 C 306.44 105.63 313.94 106.42 320.96 108.93 C 337.72 114.49 351.67 127.64 358.46 143.92 C 362.93 153.99 363.53 165.17 363.17 176.03 C 363.22 228.66 363.11 281.29 363.25 333.92 C 357.13 333.87 350.99 333.65 344.88 334.10 C 344.65 335.09 344.44 336.08 344.24 337.08 C 344.53 280.71 344.31 224.33 344.38 167.96 C 344.76 150.14 332.96 132.78 316.04 126.97 C 308.39 123.90 300.04 124.70 292.00 124.62 C 248.57 124.58 205.14 124.70 161.71 124.56 C 161.72 118.28 161.75 112.00 161.70 105.71 Z"></path></g><g id="#b5c1eeff"><path fill="#b5c1ee" opacity="1.00" d=" M 128.62 165.98 C 129.05 151.48 141.45 138.39 156.04 137.74 C 169.06 137.47 182.10 137.70 195.12 137.63 C 195.63 151.57 195.30 165.52 195.35 179.47 C 193.84 180.28 192.35 181.14 190.86 182.00 C 190.70 184.82 192.53 187.57 195.67 186.51 C 195.49 188.66 195.32 190.83 195.31 193.00 C 195.45 214.34 195.34 235.69 195.34 257.04 C 195.26 261.05 195.93 265.00 196.96 268.86 C 189.80 276.91 186.74 288.40 188.98 298.94 C 190.96 309.75 197.22 319.33 204.97 326.92 C 212.42 334.08 221.02 340.09 230.42 344.39 C 234.56 346.35 239.39 345.55 243.32 343.46 C 255.83 337.01 267.48 328.17 275.40 316.39 C 279.55 310.16 282.42 302.99 283.10 295.50 C 287.17 293.72 291.67 294.30 295.98 294.24 C 308.02 294.28 320.07 293.92 332.10 294.75 C 332.10 306.17 332.12 317.60 332.10 329.02 C 331.29 336.93 329.99 345.35 324.54 351.55 C 320.36 356.59 314.56 360.33 308.12 361.69 C 303.48 362.67 298.72 362.32 294.03 362.37 C 249.02 362.37 204.02 362.37 159.02 362.38 C 143.01 363.16 128.34 349.00 128.59 332.98 C 128.62 277.31 128.56 221.64 128.62 165.98 M 156.68 175.68 C 155.00 178.55 154.53 183.96 159.00 184.32 C 163.30 183.39 162.30 177.68 165.69 175.65 C 168.88 173.06 174.27 174.37 175.83 178.21 C 177.71 182.40 174.51 186.79 171.39 189.40 C 166.34 193.34 161.55 197.65 157.33 202.48 C 156.03 204.26 154.70 206.72 155.72 208.91 C 156.54 210.96 158.98 211.30 160.91 211.27 C 167.28 211.28 173.65 211.27 180.02 211.28 C 181.64 211.28 183.73 211.19 184.55 209.52 C 185.81 207.60 184.23 204.70 181.94 204.68 C 176.32 204.21 170.66 204.71 165.03 204.42 C 169.82 197.97 177.61 194.51 182.07 187.80 C 185.94 182.38 184.41 173.82 178.46 170.55 C 171.37 166.83 160.72 168.11 156.68 175.68 Z"></path></g><g id="#d2dbfaff"><path fill="#d2dbfa" opacity="1.00" d=" M 195.12 137.63 C 231.08 137.65 267.04 137.55 303.00 137.69 C 318.51 137.45 332.12 151.62 332.08 166.98 C 332.13 209.57 332.08 252.16 332.10 294.75 C 320.07 293.92 308.02 294.28 295.98 294.24 C 291.67 294.30 287.17 293.72 283.10 295.50 C 283.85 287.30 281.99 278.73 277.11 272.00 C 270.71 262.68 259.26 257.26 248.02 257.81 C 243.92 258.02 240.05 259.52 236.00 260.03 C 230.10 258.68 224.04 257.00 217.93 258.04 C 209.92 258.94 202.44 263.01 196.96 268.86 C 195.93 265.00 195.26 261.05 195.34 257.04 C 195.34 235.69 195.45 214.34 195.31 193.00 C 195.32 190.83 195.49 188.66 195.67 186.51 C 198.64 184.92 201.37 182.95 204.10 180.99 C 204.14 190.00 204.01 199.02 204.13 208.04 C 203.65 211.15 207.98 213.22 210.19 211.11 C 211.93 209.61 211.58 207.08 211.75 205.02 C 211.66 194.09 211.89 183.15 211.64 172.22 C 211.81 169.64 209.34 168.37 207.08 168.46 C 204.01 172.92 200.48 177.31 195.35 179.47 C 195.30 165.52 195.63 151.57 195.12 137.63 M 244.47 180.07 C 243.64 183.27 248.05 185.67 250.20 183.13 C 252.07 180.59 252.18 176.73 255.32 175.20 C 259.83 172.25 266.58 176.70 265.29 182.07 C 263.71 188.57 257.00 191.30 252.79 195.82 C 249.63 199.22 245.10 202.10 244.34 207.03 C 244.06 209.62 246.60 211.41 248.98 211.24 C 255.33 211.34 261.69 211.22 268.04 211.29 C 269.89 211.24 272.32 211.50 273.44 209.67 C 274.74 207.75 273.34 204.73 270.95 204.68 C 265.33 204.21 259.67 204.70 254.03 204.43 C 258.38 198.61 264.98 195.12 269.70 189.68 C 272.87 186.11 274.10 180.88 272.39 176.36 C 270.42 170.97 264.43 168.34 258.99 168.60 C 252.27 168.18 244.76 172.86 244.47 180.07 M 282.92 173.89 C 282.05 178.90 281.23 183.91 280.30 188.91 C 279.48 191.21 281.96 193.31 284.10 193.25 C 287.53 191.98 289.99 188.12 294.03 188.81 C 302.94 189.24 303.32 204.40 295.08 206.32 C 290.69 207.33 287.20 203.82 285.55 200.17 C 284.58 197.82 281.00 197.46 279.71 199.72 C 278.41 202.27 280.11 205.26 281.70 207.30 C 288.63 214.83 303.35 213.11 307.50 203.42 C 310.95 196.57 307.95 186.95 300.48 184.30 C 296.45 182.33 291.91 183.58 288.09 185.40 C 288.55 182.34 289.06 179.29 289.71 176.26 C 294.80 176.14 299.91 176.54 304.98 176.07 C 308.53 175.88 308.55 169.83 304.97 169.71 C 299.02 169.29 293.01 169.48 287.05 169.60 C 284.57 169.48 283.23 171.74 282.92 173.89 M 229.42 180.42 C 226.74 181.93 226.58 186.16 229.35 187.67 C 232.49 190.40 237.82 185.71 235.68 182.21 C 234.60 179.81 231.60 179.68 229.42 180.42 M 229.29 204.08 C 226.87 205.50 226.57 209.43 228.99 211.00 C 231.51 213.19 235.80 211.34 236.18 208.09 C 236.48 204.66 232.10 201.89 229.29 204.08 Z"></path></g><g id="#f73c5cff"><path fill="#f73c5c" opacity="1.00" d=" M 203.83 281.68 C 208.53 272.33 221.05 268.16 230.52 272.44 C 232.84 273.33 235.33 275.18 237.87 273.87 C 242.80 271.37 248.50 269.77 253.99 271.29 C 262.08 272.82 268.77 279.81 269.93 287.96 C 271.23 296.00 268.36 304.18 263.75 310.71 C 256.68 320.37 246.53 327.25 235.93 332.54 C 223.96 326.44 212.26 318.41 205.43 306.53 C 201.27 299.09 199.67 289.47 203.83 281.68 Z"></path></g></svg>