<svg xmlns="http://www.w3.org/2000/svg" width="500pt" height="500pt" viewBox="0 0 500 500"><g id="#000000ff"><path fill="#000000" opacity="1.00" d=" M 117.91 49.96 C 125.34 44.27 134.74 41.38 144.05 41.34 C 210.72 41.36 277.38 41.34 344.05 41.35 C 353.05 41.44 362.39 40.58 370.99 43.89 C 387.69 49.47 399.57 66.42 399.51 83.96 C 399.73 87.43 396.44 90.35 393.13 90.58 C 390.87 90.09 388.34 89.04 387.45 86.72 C 386.45 82.81 386.67 78.66 385.36 74.82 C 382.50 65.83 375.13 58.50 366.19 55.55 C 361.33 53.78 356.08 54.11 351.01 54.09 C 281.67 54.12 212.33 54.06 142.99 54.11 C 127.31 53.83 113.18 67.91 113.44 83.62 C 113.29 181.76 113.43 279.91 113.37 378.06 C 113.27 383.61 114.11 389.30 116.80 394.23 C 121.75 403.85 132.23 410.29 143.06 410.33 C 214.37 410.35 285.68 410.36 357.00 410.33 C 367.93 410.35 378.51 403.93 383.42 394.14 C 386.10 389.22 386.98 383.53 386.85 377.98 C 386.81 299.63 386.86 221.29 386.83 142.95 C 386.90 139.66 386.44 136.29 387.38 133.09 C 388.22 130.66 390.77 129.56 393.13 129.16 C 395.89 129.15 398.17 131.19 399.28 133.58 C 399.80 136.35 399.46 139.20 399.54 142.00 C 399.53 221.37 399.54 300.73 399.53 380.09 C 399.68 396.10 389.96 411.59 375.61 418.61 C 368.29 422.35 359.95 423.11 351.86 423.16 C 351.85 432.79 351.87 442.42 351.86 452.05 C 352.31 455.81 348.70 459.18 345.00 458.74 C 326.98 458.73 308.96 458.75 290.94 458.73 C 287.63 459.03 284.49 456.22 284.46 452.90 C 284.31 446.63 284.31 440.35 284.48 434.09 C 284.43 430.71 287.60 428.14 290.81 428.00 C 293.33 428.72 296.31 430.15 296.70 433.06 C 297.11 437.45 296.77 441.86 296.86 446.27 C 311.04 446.06 325.22 446.48 339.40 446.12 C 339.41 438.37 339.43 430.63 339.38 422.89 C 323.17 422.86 306.95 422.82 290.73 422.90 C 264.09 423.13 237.46 422.91 210.82 422.92 C 210.98 424.49 210.56 426.21 211.27 427.69 C 213.38 429.07 216.47 430.10 216.72 433.05 C 217.23 439.67 217.17 446.34 216.84 452.97 C 216.84 456.43 213.39 459.16 210.03 458.74 C 192.01 458.73 173.98 458.75 155.96 458.73 C 152.34 459.05 149.09 455.57 149.40 452.00 C 149.38 442.32 149.46 432.63 149.37 422.95 C 143.91 422.93 138.37 423.07 133.05 421.65 C 118.16 418.08 105.80 405.78 102.10 390.93 C 100.69 385.74 101.02 380.32 101.00 375.00 C 101.00 277.34 101.00 179.67 101.00 82.01 C 101.18 69.47 107.90 57.37 117.91 49.96 M 162.11 422.92 C 162.08 430.65 162.09 438.38 162.11 446.11 C 176.15 446.44 190.20 446.18 204.25 446.28 C 204.35 441.87 203.96 437.42 204.59 433.05 C 205.07 430.55 207.37 428.73 209.85 428.49 C 210.09 426.64 210.19 424.77 210.33 422.92 C 194.26 422.82 178.18 422.83 162.11 422.92 Z"></path><path fill="#000000" opacity="1.00" d=" M 238.57 67.94 C 260.66 65.22 283.63 70.50 302.23 82.73 C 321.90 95.58 336.75 115.80 342.60 138.61 C 347.66 157.34 346.59 177.60 339.86 195.78 C 331.79 218.07 314.94 236.94 293.91 247.81 C 277.75 256.32 259.08 259.68 240.93 257.98 C 215.70 255.75 191.74 242.70 175.86 223.02 C 163.85 208.36 156.44 190.02 154.82 171.14 C 152.73 148.71 159.09 125.63 172.26 107.37 C 187.59 85.75 212.23 71.03 238.57 67.94 M 237.53 80.70 C 212.33 84.51 189.30 100.60 177.20 123.05 C 167.81 139.85 164.96 160.00 168.58 178.84 C 172.65 200.09 185.53 219.43 203.44 231.53 C 229.62 249.82 266.60 250.67 293.58 233.59 C 312.79 221.87 326.86 201.99 331.39 179.94 C 335.23 161.99 332.84 142.79 324.70 126.33 C 316.69 109.92 303.11 96.29 286.68 88.30 C 271.61 80.71 254.18 78.36 237.53 80.70 Z"></path><path fill="#000000" opacity="1.00" d=" M 243.47 110.65 C 259.32 108.51 276.03 114.24 287.24 125.66 C 294.74 133.01 299.83 142.71 301.83 153.01 C 305.06 169.13 299.96 186.68 288.62 198.59 C 278.86 209.28 264.44 215.62 249.95 215.49 C 235.27 215.54 220.76 208.93 211.01 198.00 C 203.27 189.53 198.48 178.42 197.62 166.98 C 196.29 151.91 202.07 136.40 212.85 125.81 C 220.95 117.50 231.98 112.15 243.47 110.65 M 241.42 123.70 C 230.95 126.02 221.59 132.73 215.93 141.84 C 210.25 150.86 208.75 162.20 211.21 172.51 C 214.07 184.47 222.88 194.74 234.14 199.60 C 244.03 204.01 255.75 204.03 265.69 199.77 C 279.93 194.00 289.84 179.37 290.18 164.04 C 290.71 149.58 282.70 135.16 270.05 128.10 C 261.50 123.08 251.08 121.72 241.42 123.70 Z"></path><path fill="#000000" opacity="1.00" d=" M 133.35 241.49 C 136.94 238.96 142.65 241.56 142.97 245.98 C 143.24 249.64 143.21 253.34 142.99 257.01 C 142.71 261.43 137.02 264.45 133.39 261.64 C 129.97 259.68 130.45 255.35 130.44 252.01 C 130.53 248.41 129.73 243.73 133.35 241.49 Z"></path><path fill="#000000" opacity="1.00" d=" M 236.42 282.72 C 248.32 280.98 260.83 283.38 271.00 289.87 C 282.61 297.05 291.05 309.17 293.71 322.57 C 297.19 338.73 291.86 356.45 280.08 368.05 C 270.72 377.58 257.43 383.36 244.01 382.91 C 231.84 383.18 219.83 378.29 210.80 370.24 C 199.23 360.10 192.70 344.41 193.98 329.05 C 194.80 316.25 200.82 303.86 210.40 295.33 C 217.64 288.75 226.79 284.36 236.42 282.72 M 235.53 295.73 C 224.82 298.29 215.35 305.74 210.45 315.61 C 204.73 326.68 205.09 340.67 211.43 351.41 C 215.45 358.59 221.97 364.28 229.52 367.51 C 239.62 371.98 251.66 371.33 261.47 366.39 C 275.68 359.32 284.50 342.58 281.73 326.88 C 280.22 316.36 273.88 306.72 265.03 300.90 C 256.44 295.29 245.51 293.23 235.53 295.73 Z"></path><path fill="#000000" opacity="1.00" d=" M 134.36 286.54 C 138.49 284.68 143.43 288.53 143.09 292.92 C 143.11 318.31 143.11 343.69 143.09 369.08 C 143.36 373.20 139.18 376.99 135.06 375.67 C 132.10 375.08 130.31 371.89 130.49 369.01 C 130.43 343.63 130.47 318.25 130.47 292.87 C 130.38 290.22 131.84 287.55 134.36 286.54 Z"></path><path fill="#000000" opacity="1.00" d=" M 240.44 311.55 C 252.01 309.11 264.45 318.11 265.55 329.92 C 266.72 338.49 262.15 347.47 254.45 351.42 C 249.82 354.10 244.20 354.44 239.05 353.41 C 231.18 351.46 224.79 344.68 223.23 336.73 C 220.64 325.49 229.14 313.38 240.44 311.55 M 241.19 324.25 C 235.05 326.20 233.43 335.47 238.51 339.42 C 243.04 343.57 251.31 341.04 252.87 335.12 C 255.19 328.55 247.60 321.53 241.19 324.25 Z"></path></g><g id="#dae1e7ff"><path fill="#dae1e7" opacity="1.00" d=" M 113.44 83.62 C 113.18 67.91 127.31 53.83 142.99 54.11 C 212.33 54.06 281.67 54.12 351.01 54.09 C 356.08 54.11 361.33 53.78 366.19 55.55 C 375.13 58.50 382.50 65.83 385.36 74.82 C 386.67 78.66 386.45 82.81 387.45 86.72 C 388.34 89.04 390.87 90.09 393.13 90.58 C 393.26 103.44 393.26 116.30 393.13 129.16 C 390.77 129.56 388.22 130.66 387.38 133.09 C 386.44 136.29 386.90 139.66 386.83 142.95 C 386.86 221.29 386.81 299.63 386.85 377.98 C 386.98 383.53 386.10 389.22 383.42 394.14 C 378.51 403.93 367.93 410.35 357.00 410.33 C 285.68 410.36 214.37 410.35 143.06 410.33 C 132.23 410.29 121.75 403.85 116.80 394.23 C 114.11 389.30 113.27 383.61 113.37 378.06 C 113.43 279.91 113.29 181.76 113.44 83.62 M 238.57 67.94 C 212.23 71.03 187.59 85.75 172.26 107.37 C 159.09 125.63 152.73 148.71 154.82 171.14 C 156.44 190.02 163.85 208.36 175.86 223.02 C 191.74 242.70 215.70 255.75 240.93 257.98 C 259.08 259.68 277.75 256.32 293.91 247.81 C 314.94 236.94 331.79 218.07 339.86 195.78 C 346.59 177.60 347.66 157.34 342.60 138.61 C 336.75 115.80 321.90 95.58 302.23 82.73 C 283.63 70.50 260.66 65.22 238.57 67.94 M 133.35 241.49 C 129.73 243.73 130.53 248.41 130.44 252.01 C 130.45 255.35 129.97 259.68 133.39 261.64 C 137.02 264.45 142.71 261.43 142.99 257.01 C 143.21 253.34 143.24 249.64 142.97 245.98 C 142.65 241.56 136.94 238.96 133.35 241.49 M 236.42 282.72 C 226.79 284.36 217.64 288.75 210.40 295.33 C 200.82 303.86 194.80 316.25 193.98 329.05 C 192.70 344.41 199.23 360.10 210.80 370.24 C 219.83 378.29 231.84 383.18 244.01 382.91 C 257.43 383.36 270.72 377.58 280.08 368.05 C 291.86 356.45 297.19 338.73 293.71 322.57 C 291.05 309.17 282.61 297.05 271.00 289.87 C 260.83 283.38 248.32 280.98 236.42 282.72 M 134.36 286.54 C 131.84 287.55 130.38 290.22 130.47 292.87 C 130.47 318.25 130.43 343.63 130.49 369.01 C 130.31 371.89 132.10 375.08 135.06 375.67 C 139.18 376.99 143.36 373.20 143.09 369.08 C 143.11 343.69 143.11 318.31 143.09 292.92 C 143.43 288.53 138.49 284.68 134.36 286.54 Z"></path><path fill="#dae1e7" opacity="1.00" d=" M 241.42 123.70 C 251.08 121.72 261.50 123.08 270.05 128.10 C 282.70 135.16 290.71 149.58 290.18 164.04 C 289.84 179.37 279.93 194.00 265.69 199.77 C 255.75 204.03 244.03 204.01 234.14 199.60 C 222.88 194.74 214.07 184.47 211.21 172.51 C 208.75 162.20 210.25 150.86 215.93 141.84 C 221.59 132.73 230.95 126.02 241.42 123.70 Z"></path><path fill="#dae1e7" opacity="1.00" d=" M 241.19 324.25 C 247.60 321.53 255.19 328.55 252.87 335.12 C 251.31 341.04 243.04 343.57 238.51 339.42 C 233.43 335.47 235.05 326.20 241.19 324.25 Z"></path></g><g id="#798ba1ff"><path fill="#798ba1" opacity="1.00" d=" M 237.53 80.70 C 254.18 78.36 271.61 80.71 286.68 88.30 C 303.11 96.29 316.69 109.92 324.70 126.33 C 332.84 142.79 335.23 161.99 331.39 179.94 C 326.86 201.99 312.79 221.87 293.58 233.59 C 266.60 250.67 229.62 249.82 203.44 231.53 C 185.53 219.43 172.65 200.09 168.58 178.84 C 164.96 160.00 167.81 139.85 177.20 123.05 C 189.30 100.60 212.33 84.51 237.53 80.70 M 243.47 110.65 C 231.98 112.15 220.95 117.50 212.85 125.81 C 202.07 136.40 196.29 151.91 197.62 166.98 C 198.48 178.42 203.27 189.53 211.01 198.00 C 220.76 208.93 235.27 215.54 249.95 215.49 C 264.44 215.62 278.86 209.28 288.62 198.59 C 299.96 186.68 305.06 169.13 301.83 153.01 C 299.83 142.71 294.74 133.01 287.24 125.66 C 276.03 114.24 259.32 108.51 243.47 110.65 Z"></path><path fill="#798ba1" opacity="1.00" d=" M 235.53 295.73 C 245.51 293.23 256.44 295.29 265.03 300.90 C 273.88 306.72 280.22 316.36 281.73 326.88 C 284.50 342.58 275.68 359.32 261.47 366.39 C 251.66 371.33 239.62 371.98 229.52 367.51 C 221.97 364.28 215.45 358.59 211.43 351.41 C 205.09 340.67 204.73 326.68 210.45 315.61 C 215.35 305.74 224.82 298.29 235.53 295.73 M 240.44 311.55 C 229.14 313.38 220.64 325.49 223.23 336.73 C 224.79 344.68 231.18 351.46 239.05 353.41 C 244.20 354.44 249.82 354.10 254.45 351.42 C 262.15 347.47 266.72 338.49 265.55 329.92 C 264.45 318.11 252.01 309.11 240.44 311.55 Z"></path></g><g id="#c48d6aff"><path fill="#c48d6a" opacity="1.00" d=" M 162.11 422.92 C 178.18 422.83 194.26 422.82 210.33 422.92 C 210.19 424.77 210.09 426.64 209.85 428.49 C 207.37 428.73 205.07 430.55 204.59 433.05 C 203.96 437.42 204.35 441.87 204.25 446.28 C 190.20 446.18 176.15 446.44 162.11 446.11 C 162.09 438.38 162.08 430.65 162.11 422.92 Z"></path><path fill="#c48d6a" opacity="1.00" d=" M 290.73 422.90 C 306.95 422.82 323.17 422.86 339.38 422.89 C 339.43 430.63 339.41 438.37 339.40 446.12 C 325.22 446.48 311.04 446.06 296.86 446.27 C 296.77 441.86 297.11 437.45 296.70 433.06 C 296.31 430.15 293.33 428.72 290.81 428.00 C 290.76 426.29 290.74 424.59 290.73 422.90 Z"></path></g></svg>